<svg id="visual" viewBox="0 0 1200 600" width="1200" height="600" xmlns="http://www.w3.org/2000/svg" xmlns:xlink="http://www.w3.org/1999/xlink" version="1.1"><path d="M0 187L8.7 185C17.3 183 34.7 179 52 169C69.3 159 86.7 143 104.2 134C121.7 125 139.3 123 156.8 123C174.3 123 191.7 125 209 132C226.3 139 243.7 151 261 157C278.3 163 295.7 163 313 168C330.3 173 347.7 183 365 185C382.3 187 399.7 181 417.2 188C434.7 195 452.3 215 469.8 214C487.3 213 504.7 191 522 177C539.3 163 556.7 157 574 150C591.3 143 608.7 135 626 144C643.3 153 660.7 179 678 177C695.3 175 712.7 145 730.2 138C747.7 131 765.3 147 782.8 150C800.3 153 817.7 143 835 140C852.3 137 869.7 141 887 148C904.3 155 921.7 165 939 169C956.3 173 973.7 171 991 166C1008.3 161 1025.7 153 1043.2 145C1060.7 137 1078.3 129 1095.8 141C1113.3 153 1130.7 185 1148 195C1165.3 205 1182.7 193 1191.3 187L1200 181L1200 0L1191.3 0C1182.7 0 1165.3 0 1148 0C1130.7 0 1113.3 0 1095.8 0C1078.3 0 1060.7 0 1043.2 0C1025.7 0 1008.3 0 991 0C973.7 0 956.3 0 939 0C921.7 0 904.3 0 887 0C869.7 0 852.3 0 835 0C817.7 0 800.3 0 782.8 0C765.3 0 747.7 0 730.2 0C712.7 0 695.3 0 678 0C660.7 0 643.3 0 626 0C608.7 0 591.3 0 574 0C556.7 0 539.3 0 522 0C504.7 0 487.3 0 469.8 0C452.3 0 434.7 0 417.2 0C399.7 0 382.3 0 365 0C347.7 0 330.3 0 313 0C295.7 0 278.3 0 261 0C243.7 0 226.3 0 209 0C191.7 0 174.3 0 156.8 0C139.3 0 121.7 0 104.2 0C86.7 0 69.3 0 52 0C34.7 0 17.3 0 8.7 0L0 0Z" fill="#f6f6fd"></path><path d="M0 259L8.7 254C17.3 249 34.7 239 52 226C69.3 213 86.7 197 104.2 190C121.7 183 139.3 185 156.8 188C174.3 191 191.7 195 209 201C226.3 207 243.7 215 261 217C278.3 219 295.7 215 313 220C330.3 225 347.7 239 365 244C382.3 249 399.7 245 417.2 249C434.7 253 452.3 265 469.8 264C487.3 263 504.7 249 522 239C539.3 229 556.7 223 574 218C591.3 213 608.7 209 626 216C643.3 223 660.7 241 678 233C695.3 225 712.7 191 730.2 185C747.7 179 765.3 201 782.8 207C800.3 213 817.7 203 835 202C852.3 201 869.7 209 887 216C904.3 223 921.7 229 939 233C956.3 237 973.7 239 991 231C1008.3 223 1025.7 205 1043.2 192C1060.7 179 1078.3 171 1095.8 184C1113.3 197 1130.7 231 1148 243C1165.3 255 1182.7 245 1191.3 240L1200 235L1200 179L1191.3 185C1182.7 191 1165.3 203 1148 193C1130.7 183 1113.3 151 1095.8 139C1078.3 127 1060.7 135 1043.2 143C1025.7 151 1008.3 159 991 164C973.7 169 956.3 171 939 167C921.7 163 904.3 153 887 146C869.7 139 852.3 135 835 138C817.7 141 800.3 151 782.8 148C765.3 145 747.7 129 730.2 136C712.7 143 695.3 173 678 175C660.7 177 643.3 151 626 142C608.7 133 591.3 141 574 148C556.7 155 539.3 161 522 175C504.7 189 487.3 211 469.8 212C452.3 213 434.7 193 417.2 186C399.7 179 382.3 185 365 183C347.7 181 330.3 171 313 166C295.7 161 278.3 161 261 155C243.7 149 226.3 137 209 130C191.7 123 174.3 121 156.8 121C139.3 121 121.7 123 104.2 132C86.7 141 69.3 157 52 167C34.7 177 17.3 181 8.7 183L0 185Z" fill="#f4f4fd"></path><path d="M0 373L8.7 367C17.3 361 34.7 349 52 337C69.3 325 86.7 313 104.2 308C121.7 303 139.3 305 156.8 301C174.3 297 191.7 287 209 291C226.3 295 243.7 313 261 314C278.3 315 295.7 299 313 301C330.3 303 347.7 323 365 333C382.3 343 399.7 343 417.2 344C434.7 345 452.3 347 469.8 344C487.3 341 504.7 333 522 328C539.3 323 556.7 321 574 321C591.3 321 608.7 323 626 327C643.3 331 660.7 337 678 330C695.3 323 712.7 303 730.2 298C747.7 293 765.3 303 782.8 300C800.3 297 817.7 281 835 278C852.3 275 869.7 285 887 300C904.3 315 921.7 335 939 342C956.3 349 973.7 343 991 334C1008.3 325 1025.7 313 1043.2 305C1060.7 297 1078.3 293 1095.8 303C1113.3 313 1130.7 337 1148 343C1165.3 349 1182.7 337 1191.3 331L1200 325L1200 233L1191.3 238C1182.7 243 1165.3 253 1148 241C1130.7 229 1113.3 195 1095.8 182C1078.3 169 1060.7 177 1043.2 190C1025.7 203 1008.3 221 991 229C973.7 237 956.3 235 939 231C921.7 227 904.3 221 887 214C869.7 207 852.3 199 835 200C817.7 201 800.3 211 782.8 205C765.3 199 747.7 177 730.2 183C712.7 189 695.3 223 678 231C660.7 239 643.3 221 626 214C608.7 207 591.3 211 574 216C556.7 221 539.3 227 522 237C504.7 247 487.3 261 469.8 262C452.3 263 434.7 251 417.2 247C399.7 243 382.3 247 365 242C347.7 237 330.3 223 313 218C295.7 213 278.3 217 261 215C243.7 213 226.3 205 209 199C191.7 193 174.3 189 156.8 186C139.3 183 121.7 181 104.2 188C86.7 195 69.3 211 52 224C34.7 237 17.3 247 8.7 252L0 257Z" fill="#f2f2fc"></path><path d="M0 427L8.7 422C17.3 417 34.7 407 52 399C69.3 391 86.7 385 104.2 380C121.7 375 139.3 371 156.8 370C174.3 369 191.7 371 209 377C226.3 383 243.7 393 261 388C278.3 383 295.7 363 313 368C330.3 373 347.7 403 365 418C382.3 433 399.7 433 417.2 429C434.7 425 452.3 417 469.8 409C487.3 401 504.7 393 522 392C539.3 391 556.7 397 574 398C591.3 399 608.7 395 626 399C643.3 403 660.7 415 678 410C695.3 405 712.7 383 730.2 379C747.7 375 765.3 389 782.8 388C800.3 387 817.7 371 835 367C852.3 363 869.7 371 887 381C904.3 391 921.7 403 939 407C956.3 411 973.7 407 991 404C1008.3 401 1025.7 399 1043.2 391C1060.7 383 1078.3 369 1095.8 372C1113.3 375 1130.7 395 1148 399C1165.3 403 1182.7 391 1191.3 385L1200 379L1200 323L1191.3 329C1182.7 335 1165.3 347 1148 341C1130.7 335 1113.3 311 1095.8 301C1078.3 291 1060.7 295 1043.2 303C1025.7 311 1008.3 323 991 332C973.7 341 956.3 347 939 340C921.7 333 904.3 313 887 298C869.7 283 852.3 273 835 276C817.7 279 800.3 295 782.8 298C765.3 301 747.7 291 730.2 296C712.7 301 695.3 321 678 328C660.7 335 643.3 329 626 325C608.7 321 591.3 319 574 319C556.7 319 539.3 321 522 326C504.7 331 487.3 339 469.8 342C452.3 345 434.7 343 417.2 342C399.7 341 382.3 341 365 331C347.7 321 330.3 301 313 299C295.7 297 278.3 313 261 312C243.7 311 226.3 293 209 289C191.7 285 174.3 295 156.8 299C139.3 303 121.7 301 104.2 306C86.7 311 69.3 323 52 335C34.7 347 17.3 359 8.7 365L0 371Z" fill="#ececfb"></path><path d="M0 541L8.7 540C17.3 539 34.7 537 52 535C69.3 533 86.7 531 104.2 535C121.7 539 139.3 549 156.8 554C174.3 559 191.7 559 209 556C226.3 553 243.7 547 261 544C278.3 541 295.7 541 313 541C330.3 541 347.7 541 365 540C382.3 539 399.7 537 417.2 536C434.7 535 452.3 535 469.8 537C487.3 539 504.7 543 522 542C539.3 541 556.7 535 574 534C591.3 533 608.7 537 626 537C643.3 537 660.7 533 678 532C695.3 531 712.7 533 730.2 533C747.7 533 765.3 531 782.8 530C800.3 529 817.7 529 835 532C852.3 535 869.7 541 887 542C904.3 543 921.7 539 939 536C956.3 533 973.7 531 991 530C1008.3 529 1025.7 529 1043.2 529C1060.7 529 1078.3 529 1095.8 534C1113.3 539 1130.7 549 1148 551C1165.3 553 1182.7 547 1191.3 544L1200 541L1200 377L1191.3 383C1182.7 389 1165.3 401 1148 397C1130.7 393 1113.3 373 1095.8 370C1078.3 367 1060.7 381 1043.2 389C1025.7 397 1008.3 399 991 402C973.7 405 956.3 409 939 405C921.7 401 904.3 389 887 379C869.7 369 852.3 361 835 365C817.7 369 800.3 385 782.8 386C765.3 387 747.7 373 730.2 377C712.7 381 695.3 403 678 408C660.7 413 643.3 401 626 397C608.7 393 591.3 397 574 396C556.7 395 539.3 389 522 390C504.7 391 487.3 399 469.8 407C452.3 415 434.7 423 417.2 427C399.7 431 382.3 431 365 416C347.7 401 330.3 371 313 366C295.7 361 278.3 381 261 386C243.7 391 226.3 381 209 375C191.7 369 174.3 367 156.8 368C139.3 369 121.7 373 104.2 378C86.7 383 69.3 389 52 397C34.7 405 17.3 415 8.7 420L0 425Z" fill="#e1e1f9"></path><path d="M0 601L8.7 601C17.3 601 34.7 601 52 601C69.3 601 86.7 601 104.2 601C121.7 601 139.3 601 156.8 601C174.3 601 191.7 601 209 601C226.3 601 243.7 601 261 601C278.3 601 295.7 601 313 601C330.3 601 347.7 601 365 601C382.3 601 399.7 601 417.2 601C434.7 601 452.3 601 469.8 601C487.3 601 504.7 601 522 601C539.3 601 556.7 601 574 601C591.3 601 608.7 601 626 601C643.3 601 660.7 601 678 601C695.3 601 712.7 601 730.2 601C747.7 601 765.3 601 782.8 601C800.3 601 817.7 601 835 601C852.3 601 869.7 601 887 601C904.3 601 921.7 601 939 601C956.3 601 973.7 601 991 601C1008.3 601 1025.7 601 1043.2 601C1060.7 601 1078.3 601 1095.8 601C1113.3 601 1130.7 601 1148 601C1165.3 601 1182.7 601 1191.3 601L1200 601L1200 539L1191.3 542C1182.7 545 1165.3 551 1148 549C1130.7 547 1113.3 537 1095.8 532C1078.3 527 1060.7 527 1043.2 527C1025.7 527 1008.3 527 991 528C973.7 529 956.3 531 939 534C921.7 537 904.3 541 887 540C869.7 539 852.3 533 835 530C817.7 527 800.3 527 782.8 528C765.3 529 747.7 531 730.2 531C712.7 531 695.3 529 678 530C660.7 531 643.3 535 626 535C608.7 535 591.3 531 574 532C556.7 533 539.3 539 522 540C504.7 541 487.3 537 469.8 535C452.3 533 434.7 533 417.2 534C399.7 535 382.3 537 365 538C347.7 539 330.3 539 313 539C295.7 539 278.3 539 261 542C243.7 545 226.3 551 209 554C191.7 557 174.3 557 156.8 552C139.3 547 121.7 537 104.2 533C86.7 529 69.3 531 52 533C34.7 535 17.3 537 8.7 538L0 539Z" fill="#d6d6f7"></path></svg>